<svg width="458" height="58" viewBox="0 0 458 58" fill="none" xmlns="http://www.w3.org/2000/svg">
<g filter="url(#filter0_d_29_7)">
<path d="M4 0H454V50H4V0Z" fill="#D6E7D2"/>
</g>
<path d="M37.4659 22H35.7045C35.6004 21.4934 35.4181 21.0483 35.1577 20.6648C34.902 20.2812 34.5895 19.9593 34.2202 19.6989C33.8556 19.4337 33.4508 19.2348 33.0057 19.1023C32.5606 18.9697 32.0966 18.9034 31.6136 18.9034C30.733 18.9034 29.9351 19.1259 29.2202 19.571C28.5099 20.0161 27.9441 20.6719 27.5227 21.5384C27.1061 22.4048 26.8977 23.4678 26.8977 24.7273C26.8977 25.9867 27.1061 27.0497 27.5227 27.9162C27.9441 28.7827 28.5099 29.4384 29.2202 29.8835C29.9351 30.3286 30.733 30.5511 31.6136 30.5511C32.0966 30.5511 32.5606 30.4848 33.0057 30.3523C33.4508 30.2197 33.8556 30.0232 34.2202 29.7628C34.5895 29.4976 34.902 29.1733 35.1577 28.7898C35.4181 28.4015 35.6004 27.9564 35.7045 27.4545H37.4659C37.3333 28.1979 37.0919 28.8632 36.7415 29.4503C36.3911 30.0374 35.9555 30.5369 35.4347 30.9489C34.9138 31.3561 34.3291 31.6662 33.6804 31.8793C33.0365 32.0923 32.3475 32.1989 31.6136 32.1989C30.3731 32.1989 29.2699 31.8958 28.304 31.2898C27.3381 30.6837 26.5781 29.822 26.0241 28.7045C25.4702 27.5871 25.1932 26.2614 25.1932 24.7273C25.1932 23.1932 25.4702 21.8674 26.0241 20.75C26.5781 19.6326 27.3381 18.7708 28.304 18.1648C29.2699 17.5587 30.3731 17.2557 31.6136 17.2557C32.3475 17.2557 33.0365 17.3622 33.6804 17.5753C34.3291 17.7884 34.9138 18.1009 35.4347 18.5128C35.9555 18.92 36.3911 19.4171 36.7415 20.0043C37.0919 20.5866 37.3333 21.2519 37.4659 22ZM41.0849 32V21.0909H42.761V32H41.0849ZM41.9371 19.2727C41.6104 19.2727 41.3287 19.1615 41.092 18.9389C40.86 18.7164 40.744 18.4489 40.744 18.1364C40.744 17.8239 40.86 17.5563 41.092 17.3338C41.3287 17.1113 41.6104 17 41.9371 17C42.2638 17 42.5432 17.1113 42.7752 17.3338C43.012 17.5563 43.1303 17.8239 43.1303 18.1364C43.1303 18.4489 43.012 18.7164 42.7752 18.9389C42.5432 19.1615 42.2638 19.2727 41.9371 19.2727ZM51.5753 21.0909V22.5114H45.9219V21.0909H51.5753ZM47.5696 18.4773H49.2457V28.875C49.2457 29.3485 49.3144 29.7036 49.4517 29.9403C49.5938 30.1723 49.7737 30.3286 49.9915 30.4091C50.214 30.4848 50.4484 30.5227 50.6946 30.5227C50.8793 30.5227 51.0308 30.5133 51.1491 30.4943C51.2675 30.4706 51.3622 30.4517 51.4332 30.4375L51.7741 31.9432C51.6605 31.9858 51.5019 32.0284 51.2983 32.071C51.0947 32.1184 50.8366 32.142 50.5241 32.142C50.0507 32.142 49.5866 32.0402 49.1321 31.8366C48.6823 31.633 48.3082 31.3229 48.0099 30.9062C47.7164 30.4896 47.5696 29.964 47.5696 29.3295V18.4773ZM56.1761 36.0909C55.892 36.0909 55.6387 36.0672 55.4162 36.0199C55.1937 35.9773 55.0398 35.9347 54.9545 35.892L55.3807 34.4148C55.7879 34.5189 56.1477 34.5568 56.4602 34.5284C56.7727 34.5 57.0497 34.3603 57.2912 34.1094C57.5374 33.8632 57.7623 33.4631 57.9659 32.9091L58.2784 32.0568L54.2443 21.0909H56.0625L59.0739 29.7841H59.1875L62.1989 21.0909H64.017L59.3864 33.5909C59.178 34.1544 58.92 34.6207 58.6122 34.9901C58.3045 35.3641 57.947 35.6411 57.5398 35.821C57.1373 36.0009 56.6828 36.0909 56.1761 36.0909Z" fill="#717171"/>
<circle cx="411" cy="25" r="8" fill="#AEA1A1"/>
<path d="M411 26L409 24.0001" stroke="white" stroke-width="0.5" stroke-linecap="round"/>
<path d="M411 26L413 24" stroke="white" stroke-width="0.5" stroke-linecap="round"/>
<defs>
<filter id="filter0_d_29_7" x="0" y="0" width="458" height="58" filterUnits="userSpaceOnUse" color-interpolation-filters="sRGB">
<feFlood flood-opacity="0" result="BackgroundImageFix"/>
<feColorMatrix in="SourceAlpha" type="matrix" values="0 0 0 0 0 0 0 0 0 0 0 0 0 0 0 0 0 0 127 0" result="hardAlpha"/>
<feOffset dy="4"/>
<feGaussianBlur stdDeviation="2"/>
<feComposite in2="hardAlpha" operator="out"/>
<feColorMatrix type="matrix" values="0 0 0 0 0 0 0 0 0 0 0 0 0 0 0 0 0 0 0.25 0"/>
<feBlend mode="normal" in2="BackgroundImageFix" result="effect1_dropShadow_29_7"/>
<feBlend mode="normal" in="SourceGraphic" in2="effect1_dropShadow_29_7" result="shape"/>
</filter>
</defs>
</svg>
